<svg height="511pt" viewBox="-43 1 511 511.99999" width="511pt" xmlns="http://www.w3.org/2000/svg"><path d="m418 225c-4.144531 0-7.5 3.355469-7.5 7.5v52.5h-15v-112.5c0-4.144531-3.359375-7.5-7.5-7.5h-40c-12.253906 0-23.152344 5.90625-30 15.023438-6.847656-9.117188-17.75-15.023438-30-15.023438h-40c-4.144531 0-7.5 3.355469-7.5 7.5v112.5h-15v-52.5c0-4.144531-3.359375-7.5-7.5-7.5-4.144531 0-7.5 3.355469-7.5 7.5v212c0 4.140625 3.355469 7.5 7.5 7.5h200c4.140625 0 7.5-3.359375 7.5-7.5v-212c0-4.144531-3.359375-7.5-7.5-7.5zm-37.5 60h-53.710938c3.09375-8.730469 11.433594-15 21.210938-15h32.5zm-32.5-105h32.5v75h-32.5c-8.4375 0-16.230469 2.800781-22.5 7.519531v-60.019531c0-12.40625 10.09375-22.5 22.5-22.5zm-60 0c12.40625 0 22.5 10.09375 22.5 22.5v60.019531c-6.273438-4.71875-14.066406-7.519531-22.5-7.519531h-32.5v-75zm-32.5 90h32.5c9.777344 0 18.113281 6.269531 21.207031 15h-53.707031zm155 30v107h-25v-15h2.5c4.140625 0 7.5-3.359375 7.5-7.5 0-4.144531-3.359375-7.5-7.5-7.5h-2.5v-15h2.5c4.140625 0 7.5-3.359375 7.5-7.5 0-4.144531-3.359375-7.5-7.5-7.5h-2.5v-15h2.5c4.140625 0 7.5-3.359375 7.5-7.5 0-4.144531-3.359375-7.5-7.5-7.5h-65c-12.40625 0-22.5 10.089844-22.5 22.5 0 5.757812 2.175781 11.015625 5.746094 15-3.570313 3.984375-5.746094 9.242188-5.746094 15s2.175781 11.015625 5.746094 15c-3.570313 3.984375-5.746094 9.242188-5.746094 15 0 2.628906.457031 5.152344 1.289062 7.5h-16.289062v-82.5c0-4.144531-3.359375-7.5-7.5-7.5h-30c-4.144531 0-7.5 3.355469-7.5 7.5v82.5h-15v-107zm-87.5 107c-4.136719 0-7.5-3.367188-7.5-7.5 0-4.136719 3.363281-7.5 7.5-7.5h47.5v15zm-7.5-67.5c0-4.136719 3.363281-7.5 7.5-7.5h47.5v15h-47.5c-4.136719 0-7.5-3.367188-7.5-7.5zm7.5 37.5c-4.136719 0-7.5-3.367188-7.5-7.5 0-4.136719 3.363281-7.5 7.5-7.5h47.5v15zm-67.5-15h15v15h-15zm15-15h-15v-15h15zm-15 45h15v15h-15zm-30 45v-15h185v15zm0 0"/><path d="m248 467c-12.40625 0-22.5 10.089844-22.5 22.5 0 12.40625 10.09375 22.496094 22.5 22.496094s22.5-10.089844 22.5-22.496094c0-12.410156-10.09375-22.5-22.5-22.5zm0 30c-4.136719 0-7.5-3.367188-7.5-7.5 0-4.136719 3.363281-7.5 7.5-7.5s7.5 3.363281 7.5 7.5c0 4.132812-3.363281 7.5-7.5 7.5zm0 0"/><path d="m388 467c-12.40625 0-22.5 10.089844-22.5 22.5 0 12.40625 10.09375 22.496094 22.5 22.496094s22.5-10.089844 22.5-22.496094c0-12.410156-10.09375-22.5-22.5-22.5zm0 30c-4.136719 0-7.5-3.367188-7.5-7.5 0-4.136719 3.363281-7.5 7.5-7.5 4.132812 0 7.5 3.363281 7.5 7.5 0 4.132812-3.367188 7.5-7.5 7.5zm0 0"/><path d="m205.371094 497.382812-24.871094-8.289062v-129.09375h7.5c4.140625 0 7.5-3.359375 7.5-7.5v-160c0-15.164062-12.335938-27.5-27.5-27.5h-50c-12.464844 0-23.011719 8.339844-26.375 19.730469-42.519531-3.269531-76.125-38.886719-76.125-82.230469 0-4.140625-3.355469-7.5-7.5-7.5s-7.5 3.359375-7.5 7.5c0 51.238281 39.730469 93.371094 90 97.214844v60.042968c-9.691406 11.988282-15 26.933594-15 42.40625v50.335938c0 4.140625 3.355469 7.5 7.5 7.5h22.5v45.214844l-43.726562 65.101562c-.832032 1.238282-1.273438 2.691406-1.273438 4.183594v30c0 4.140625 3.355469 7.5 7.5 7.5s7.5-3.359375 7.5-7.5v-27.714844l43.726562-65.105468c.828126-1.234376 1.273438-2.691407 1.273438-4.179688v-47.5h45v134.5c0 3.226562 2.0625 6.09375 5.128906 7.113281l30 10c.785156.261719 1.585938.386719 2.371094.386719 3.140625 0 6.066406-1.988281 7.113281-5.128906 1.3125-3.929688-.8125-8.179688-4.742187-9.488282zm-24.871094-304.882812v62.5h-30.015625v-25.066406c12.425781-11.429688 20.375-29.140625 22.125-49.042969 4.617187 1.839844 7.890625 6.34375 7.890625 11.609375zm-37.515625 23.710938c-7.992187-8.832032-13.253906-21.867188-14.628906-36.210938h29.253906c-1.375 14.34375-6.632813 27.378906-14.625 36.210938zm-37.484375-23.710938c0-5.253906 3.257812-9.75 7.859375-11.597656 1.753906 19.898437 9.699219 37.605468 22.125 49.03125v25.066406h-29.984375zm-15 109.664062c0-11.6875 3.90625-22.980468 11.039062-32.164062h78.960938v75h-90zm0 0"/><path d="m90.484375 97.5c0 28.949219 23.550781 52.5 52.5 52.5 28.945313 0 52.5-23.550781 52.5-52.5 0-15.085938-6.40625-28.699219-16.628906-38.28125 9.566406-2.589844 16.628906-11.34375 16.628906-21.71875 0-11.101562-8.085937-20.351562-18.675781-22.175781-3-8.898438-11.425782-15.324219-21.324219-15.324219-4.527344 0-8.855469 1.351562-12.5 3.789062-3.644531-2.4375-7.976563-3.789062-12.5-3.789062-9.898437 0-18.328125 6.425781-21.328125 15.324219-10.589844 1.824219-18.671875 11.074219-18.671875 22.175781 0 10.375 7.058594 19.128906 16.628906 21.71875-10.222656 9.582031-16.628906 23.195312-16.628906 38.28125zm90 0c0 20.675781-16.824219 37.5-37.5 37.5-20.679687 0-37.5-16.824219-37.5-37.5 0-20.679688 16.820313-37.5 37.5-37.5 20.675781 0 37.5 16.820312 37.5 37.5zm-67.5-52.5c-4.136719 0-7.5-3.363281-7.5-7.5s3.363281-7.5 7.5-7.5c.363281 0 .777344.039062 1.261719.121094 2.195312.367187 4.4375-.25 6.128906-1.699219 1.6875-1.445313 2.648438-3.566406 2.621094-5.789063-.003906-.101562-.003906-.199218-.011719-.300781.089844-4.058593 3.421875-7.332031 7.5-7.332031 2.515625 0 4.851563 1.257812 6.25 3.363281 1.390625 2.09375 3.734375 3.351563 6.25 3.351563 2.511719 0 4.855469-1.257813 6.246094-3.351563 1.398437-2.105469 3.738281-3.363281 6.253906-3.363281 4.078125 0 7.410156 3.277344 7.496094 7.335938-.003907.066406-.003907.132812-.007813.199218-.054687 2.238282.890625 4.386719 2.585938 5.855469 1.691406 1.46875 3.945312 2.101563 6.160156 1.730469.488281-.082032.898438-.121094 1.265625-.121094 4.136719 0 7.5 3.363281 7.5 7.5s-3.363281 7.5-7.5 7.5zm0 0"/></svg>