<svg height="512" viewBox="0 0 64 64" width="512" xmlns="http://www.w3.org/2000/svg"><g id="Reader-2" data-name="Reader"><path d="m17 19h2v2h-2z"/><path d="m27 19h2v2h-2z"/><path d="m27 25h-2a2 2 0 0 1 -4 0h-2a4 4 0 0 0 8 0z"/><path d="m18 24a4 4 0 0 0 4-4 1 1 0 0 1 2 0 4.039 4.039 0 1 0 .8-2.381 2.941 2.941 0 0 0 -3.61 0 3.994 3.994 0 1 0 -3.19 6.381zm10-6a2 2 0 1 1 -2 2 2 2 0 0 1 2-2zm-10 0a2 2 0 1 1 -2 2 2 2 0 0 1 2-2z"/><path d="m61 37h-3v-2a1 1 0 0 0 -1-1h-8a1.006 1.006 0 0 0 -.555.168l-2.445 1.632-2.445-1.63a1.006 1.006 0 0 0 -.555-.17h-8a1 1 0 0 0 -1 1v2h-3a1 1 0 0 0 -.391.08l-2.609-.815v-3.479a11 11 0 0 0 6-9.786v-1a3 3 0 0 0 0-6v-3a11 11 0 0 0 -22 0v3a3 3 0 0 0 0 6v1a11 11 0 0 0 6 9.786v3.479l-8.277 2.59a10.94 10.94 0 0 0 -7.723 10.495v11.65a1 1 0 0 0 1 1h40a1 1 0 0 0 1-1v-2.613l1.684.562a1 1 0 0 0 .632 0l2.846-.949h11.838a1 1 0 0 0 1-1v-19a1 1 0 0 0 -1-1zm-11.7-1h6.7v16h-7a1 1 0 0 0 -.316.051l-1.684.562v-15.078zm-13.3 0h6.7l2.3 1.535v15.078l-1.684-.562a1 1 0 0 0 -.316-.051h-7zm-1-17a1 1 0 0 1 -1 1v-2a1 1 0 0 1 1 1zm-12-15a9.01 9.01 0 0 1 9 9v1h-1.586l-2.707-2.707a1 1 0 0 0 -1.307-.093l-3.733 2.8h-8.667v-1a9.01 9.01 0 0 1 9-9zm-12 15a1 1 0 0 1 1-1v2a1 1 0 0 1 -1-1zm3 4v-7h9a1 1 0 0 0 .6-.2l3.306-2.48 2.387 2.387a1 1 0 0 0 .707.293h2v7a9 9 0 0 1 -18 0zm9 11a10.966 10.966 0 0 0 3-.426v3.426a3 3 0 0 1 -6 0v-3.426a10.966 10.966 0 0 0 3 .426zm-19 15.35a8.947 8.947 0 0 1 6.318-8.585l7.875-2.465a4.973 4.973 0 0 0 9.614 0l2.193.685v18.015a1 1 0 0 0 1 1h4v2h-24v-11h-2v11h-5zm33 10.65v-2h5v2zm23-4h-11a1 1 0 0 0 -.316.051l-2.684.895-2.684-.895a1 1 0 0 0 -.316-.051h-11v-17h2v14a1 1 0 0 0 1 1h7.838l2.846.949h.006a.986.986 0 0 0 .62 0h.006l2.846-.949h7.838a1 1 0 0 0 1-1v-14h2z"/><path d="m49 39h5v2h-5z"/><path d="m49 43h5v2h-5z"/><path d="m49 47h5v2h-5z"/><path d="m38 39h5v2h-5z"/><path d="m38 43h5v2h-5z"/><path d="m38 47h5v2h-5z"/></g></svg>